# xmcd
#
# Track frame offsets: 
#        150
#        20905
#        40357
#        61102
#
# Disc length: 1072 seconds
#
# Revision: 1
# Processed by: cddbd v1.5.2PL0 Copyright (c) Steve Scherf et al.
# Submitted via: ExactAudioCopyFreeDBPlugin 1.0
#
DISCID=30042e04
DTITLE=高坂穂乃果(新田恵海), 南ことり(内田彩), 園田海未(三森すずこ) - ススメ→トゥモロウ
DYEAR=2013
DGENRE=LoveLive
TTITLE0=ススメ→トゥモロウ
TTITLE1=START:DASH!!
TTITLE2=ススメ→トゥモロウ (Off Vocal)
TTITLE3=START:DASH!! (Off Vocal)
EXTD=
EXTT0=
EXTT1=
EXTT2=
EXTT3=
PLAYORDER=
